<?xml version="1.0" standalone="no"?>
<!DOCTYPE svg PUBLIC "-//W3C//DTD SVG 20010904//EN"
 "http://www.w3.org/TR/2001/REC-SVG-20010904/DTD/svg10.dtd">
<svg version="1.0" xmlns="http://www.w3.org/2000/svg"
 width="218.000000pt" height="218.000000pt" viewBox="0 0 218.000000 218.000000"
 preserveAspectRatio="xMidYMid meet">
<metadata>
Created by potrace 1.14, written by Peter Selinger 2001-2017
</metadata>
<g transform="translate(0.000000,218.000000) scale(0.100000,-0.100000)"
fill="#000000" stroke="none">
<path d="M346 1658 c3 -5 10 -6 15 -3 13 9 11 12 -6 12 -8 0 -12 -4 -9 -9z"/>
<path d="M1434 1640 c0 -13 4 -16 10 -10 7 7 7 13 0 20 -6 6 -10 3 -10 -10z"/>
<path d="M537 1630 c4 -16 0 -20 -19 -20 -13 0 -30 6 -37 13 -9 7 -12 8 -7 0
4 -8 -16 -11 -71 -12 -43 0 -79 -5 -81 -11 -2 -5 -8 -10 -13 -10 -6 0 -7 5 -3
12 4 7 3 8 -5 4 -6 -4 -8 -12 -5 -18 5 -8 1 -9 -12 -5 -18 7 -18 7 0 -8 17
-13 17 -15 4 -15 -9 0 -20 -5 -24 -12 -4 -7 -3 -8 4 -4 8 5 10 -5 6 -30 -3
-30 0 -41 23 -61 16 -14 23 -23 17 -20 -6 4 -11 0 -11 -7 0 -8 5 -12 12 -10
13 5 58 -53 50 -66 -3 -5 0 -12 6 -16 8 -4 9 -3 5 4 -4 7 -2 12 3 12 6 0 11
-7 11 -16 0 -8 5 -12 10 -9 6 3 10 -3 10 -14 0 -15 7 -21 23 -22 l22 0 -22
-11 c-26 -13 -30 -25 -8 -25 8 0 12 4 9 9 -3 4 2 8 11 8 8 0 19 -10 24 -22 5
-13 21 -36 35 -51 14 -15 26 -32 26 -38 0 -5 7 -9 16 -9 8 0 13 -4 9 -9 -3 -5
4 -12 15 -16 11 -3 20 -10 20 -15 0 -5 -6 -7 -14 -4 -22 8 -28 -12 -8 -27 16
-13 16 -13 2 5 -14 18 -14 19 5 12 11 -5 25 -9 32 -9 6 0 9 -7 5 -15 -3 -10
-1 -13 6 -8 6 3 13 2 17 -4 3 -5 1 -10 -6 -10 -8 0 -9 -3 0 -13 6 -8 7 -18 3
-22 -4 -5 -1 -5 6 -1 7 4 9 12 6 18 -5 7 -2 8 5 4 7 -5 10 -15 7 -23 -3 -8 -2
-12 3 -9 12 8 44 -31 36 -43 -5 -10 6 -15 26 -13 3 1 12 -11 20 -26 16 -31 40
-52 51 -46 4 3 5 -2 2 -10 -3 -9 -10 -16 -15 -16 -5 0 -9 -5 -9 -12 0 -9 3 -9
12 0 18 18 38 15 37 -5 0 -11 -3 -13 -6 -5 -2 6 -9 9 -14 6 -6 -3 -2 -12 8
-19 13 -10 20 -10 25 -2 5 8 8 6 8 -5 0 -10 5 -18 11 -18 6 0 8 -9 4 -22 -4
-16 -3 -19 3 -9 8 10 12 9 24 -8 8 -11 19 -18 24 -13 4 4 2 -2 -6 -12 -10 -13
-10 -17 -2 -12 8 5 12 1 12 -11 0 -15 2 -16 10 -3 8 12 10 11 10 -7 0 -13 5
-23 11 -23 5 0 7 5 3 12 -4 6 -3 8 4 5 5 -4 8 -17 5 -30 -4 -18 -3 -19 6 -7 9
13 11 13 11 -2 0 -10 7 -18 15 -18 9 0 12 -6 8 -17 -5 -13 -2 -15 11 -10 13 5
17 3 13 -7 -7 -17 54 -37 105 -34 20 2 34 5 32 7 -6 6 39 36 49 33 5 -1 5 2 2
8 -5 8 -14 5 -28 -6 -22 -18 -22 -18 0 6 17 18 25 21 36 12 11 -9 14 -8 14 3
0 8 -4 12 -8 9 -4 -2 -10 0 -14 6 -3 5 -1 10 5 10 21 0 40 26 28 38 -8 8 -4 9
12 5 19 -5 22 -3 17 12 -6 14 -3 16 13 12 18 -5 19 -3 8 11 -7 9 -8 13 -3 10
6 -4 17 7 24 23 7 16 19 29 27 29 9 0 12 5 9 10 -3 6 1 10 9 10 10 0 13 6 9
17 -6 16 -5 16 10 4 15 -12 17 -12 12 1 -7 17 49 88 68 88 5 0 3 -8 -6 -18
-20 -21 -22 -32 -6 -32 5 0 8 4 5 9 -3 5 1 14 9 21 12 10 13 16 3 27 -9 11 -7
15 11 20 17 4 19 8 9 14 -10 7 -9 9 5 9 9 0 17 5 17 11 0 5 5 7 11 3 8 -4 8
-1 1 13 -9 17 -8 19 11 18 20 -2 74 42 64 52 -3 2 -13 -6 -24 -19 -10 -13 -25
-24 -33 -26 -8 -1 -3 8 13 21 15 12 27 28 27 35 0 8 9 11 28 7 22 -4 23 -4 7
4 -18 8 -19 9 -3 16 10 4 15 11 12 16 -3 5 0 9 6 9 6 0 8 5 5 10 -3 6 1 10 10
10 10 0 13 -5 9 -12 -4 -7 -3 -8 5 -4 6 4 9 11 6 16 -3 4 -2 15 1 24 5 13 10
14 20 5 10 -8 12 -5 8 15 -3 21 -1 24 13 19 13 -5 15 -3 10 11 -6 15 -3 17 14
13 16 -4 19 -3 11 5 -8 8 -7 15 6 25 9 8 11 11 3 7 -10 -5 -12 -3 -6 5 4 7 18
11 30 9 16 -4 22 -1 18 9 -3 7 -9 10 -14 7 -5 -3 -6 2 -3 9 7 20 39 27 55 13
8 -6 6 -2 -4 10 -16 20 -16 21 7 41 13 12 28 18 32 15 5 -4 2 2 -6 12 -8 11
-10 17 -3 13 7 -5 16 1 23 13 6 11 18 20 28 20 15 0 15 2 2 10 -13 8 -9 13 10
12 3 0 3 22 1 50 -2 34 -6 46 -12 37 -6 -10 -9 -8 -9 9 0 13 -6 22 -16 22 -10
0 -14 6 -11 15 4 8 1 17 -5 21 -7 4 -8 3 -4 -4 10 -16 -26 -15 -43 1 -11 10
-13 10 -7 0 5 -9 -2 -13 -23 -13 -18 0 -31 5 -31 13 0 9 -2 9 -8 0 -4 -7 -26
-12 -47 -11 -48 1 -62 7 -44 20 11 8 11 9 -1 5 -8 -2 -14 -10 -13 -16 2 -6 -4
-11 -13 -11 -9 0 -12 5 -8 13 6 10 4 10 -7 0 -7 -7 -19 -13 -27 -13 -8 0 -10
5 -6 13 6 10 4 10 -7 0 -7 -7 -21 -13 -32 -13 -12 0 -16 4 -11 13 4 6 4 9 -1
5 -4 -4 -15 -2 -24 5 -14 10 -14 10 -3 -5 12 -15 9 -17 -37 -16 -36 0 -49 3
-45 11 4 8 2 7 -7 0 -7 -7 -29 -13 -49 -13 -26 0 -31 3 -20 10 9 6 10 10 3 10
-6 0 -15 -4 -18 -10 -3 -5 -18 -10 -32 -10 -21 0 -23 3 -14 14 9 11 9 16 0 22
-7 4 -9 3 -6 -3 12 -19 -21 -34 -65 -31 -29 2 -42 7 -40 16 1 8 -2 11 -8 7 -6
-3 -8 -11 -5 -16 4 -5 -9 -9 -29 -9 -19 0 -37 6 -39 13 -4 10 -6 10 -6 0 -1
-7 -13 -13 -27 -13 -14 0 -23 4 -20 8 3 5 -1 9 -9 9 -8 0 -12 -4 -9 -9 3 -4
-16 -8 -41 -8 -34 0 -44 3 -39 13 6 10 4 10 -7 0 -7 -7 -29 -13 -49 -13 -26 0
-31 3 -20 10 9 6 10 10 3 10 -6 0 -15 -4 -18 -10 -3 -5 -18 -10 -32 -10 -21 0
-23 3 -14 14 9 11 9 16 -1 22 -7 4 -10 4 -6 -1 15 -16 -15 -35 -58 -35 -41 0
-65 13 -44 23 6 3 5 4 -2 3 -7 -2 -12 -9 -10 -15 1 -6 -5 -11 -14 -11 -8 0
-13 4 -10 8 3 5 -1 9 -9 9 -8 0 -12 -4 -9 -9 3 -4 -15 -8 -40 -8 -33 0 -46 4
-46 14 0 8 -4 17 -9 20 -5 4 -7 -3 -4 -14z m134 -207 c0 9 2 9 6 0 3 -10 10
-10 25 -2 15 8 19 8 14 0 -4 -6 -2 -11 3 -11 6 0 11 4 11 9 0 10 19 9 38 -2 6
-5 12 -4 12 1 0 16 30 9 31 -7 0 -12 3 -11 9 4 5 11 9 14 9 7 1 -8 6 -10 14
-5 18 12 61 11 69 -1 5 -7 8 -5 8 4 0 13 1 13 10 0 5 -8 10 -10 10 -5 0 12 40
13 58 1 7 -4 12 -4 12 1 0 10 52 9 68 -1 7 -4 12 -4 12 1 0 10 60 11 61 1 1
-4 2 -12 3 -17 0 -5 4 -13 8 -16 4 -4 5 5 2 20 -4 23 -2 26 8 17 8 -6 19 -7
26 -3 15 9 75 7 91 -3 6 -4 11 -2 11 4 0 6 5 8 10 5 6 -4 8 -12 4 -18 -3 -7 0
-5 8 3 18 21 88 22 88 1 0 -11 3 -12 8 -5 10 17 54 21 59 7 3 -7 0 -13 -7 -13
-6 0 -8 5 -4 12 5 7 3 8 -5 3 -10 -5 -10 -10 -1 -19 8 -8 16 -5 30 14 11 14
20 19 20 11 0 -11 3 -11 17 0 11 10 14 10 9 2 -8 -15 6 -17 19 -4 6 6 19 5 34
-3 20 -11 21 -14 7 -19 -11 -5 -15 -3 -10 4 4 7 1 10 -7 7 -8 -3 -13 -12 -11
-21 4 -21 -17 -32 -31 -17 -9 10 -9 11 0 6 6 -3 14 -2 17 3 11 17 -8 20 -29 5
-10 -8 -13 -14 -7 -14 7 0 12 -5 12 -11 0 -5 -4 -7 -10 -4 -5 3 -10 1 -10 -5
0 -7 9 -9 23 -5 19 5 20 4 7 -7 -8 -7 -21 -25 -29 -41 -8 -15 -17 -23 -20 -18
-4 5 -15 3 -26 -6 -16 -13 -17 -15 -2 -10 9 4 17 2 17 -3 0 -6 -6 -10 -12 -10
-7 0 -22 -8 -33 -16 -19 -16 -19 -16 5 -10 24 7 24 6 -2 -9 -16 -9 -28 -23
-28 -31 0 -9 -5 -12 -12 -8 -7 5 -9 2 -5 -9 4 -12 1 -15 -14 -12 -18 4 -19 2
-7 -12 9 -12 9 -15 1 -9 -8 4 -13 1 -13 -8 0 -9 -5 -16 -11 -16 -5 0 -7 4 -4
10 3 6 -1 7 -10 3 -13 -4 -14 -8 -4 -14 21 -12 3 -22 -18 -10 -15 7 -20 7 -20
-4 0 -7 6 -11 14 -8 7 3 13 0 13 -6 0 -6 -4 -11 -10 -11 -5 0 -10 -5 -10 -12
0 -14 -30 -48 -42 -48 -5 0 -6 5 -2 12 4 7 3 8 -4 4 -6 -4 -8 -14 -5 -24 6
-15 5 -16 -13 -2 -18 14 -18 14 -4 -4 12 -15 12 -20 2 -23 -6 -3 -10 -9 -6
-14 3 -5 -2 -9 -10 -9 -8 0 -14 6 -12 13 1 6 1 9 -1 4 -3 -4 -10 -4 -16 0 -7
4 -6 -1 2 -11 12 -15 13 -19 1 -26 -7 -5 -15 -16 -16 -26 -2 -9 -10 -24 -19
-33 -16 -15 -17 -14 -7 5 7 14 7 25 0 35 -8 11 -9 11 -4 -3 3 -10 1 -20 -4
-23 -6 -4 -10 -15 -10 -26 0 -10 -4 -19 -10 -19 -5 0 -10 -8 -10 -17 0 -15 -2
-16 -10 -3 -12 18 -13 31 -2 28 4 -2 7 -1 8 2 0 3 6 16 13 30 11 22 10 22 -14
-5 -20 -22 -25 -25 -20 -10 5 15 3 17 -5 9 -9 -9 -9 -17 0 -34 6 -12 9 -24 6
-28 -3 -3 -6 0 -6 6 0 6 -7 18 -16 27 -14 13 -14 18 -2 32 9 12 9 15 1 9 -8
-4 -13 -1 -13 8 0 9 -5 16 -10 16 -7 0 -7 -6 0 -20 6 -11 8 -20 5 -20 -10 0
-37 30 -28 30 4 0 0 5 -9 11 -10 5 -18 15 -18 22 0 7 -10 17 -22 22 -13 6 -22
16 -20 23 1 7 -2 12 -8 12 -5 0 -10 10 -11 23 0 21 -1 21 -9 2 -8 -19 -9 -19
-9 1 -1 12 -8 25 -17 28 -9 3 -12 11 -8 18 5 8 2 9 -10 5 -9 -4 -15 -3 -11 2
3 6 -2 14 -11 19 -9 5 -16 13 -16 18 0 5 -4 8 -8 7 -4 -1 -11 4 -14 13 -3 8
-2 12 3 9 5 -3 12 -2 15 3 2 4 -5 9 -16 9 -24 2 -49 33 -43 52 4 9 0 11 -10 7
-9 -3 -15 0 -15 10 0 8 -4 13 -9 9 -5 -3 -13 0 -17 6 -4 7 -3 9 4 5 6 -3 13
-2 17 4 5 9 -14 15 -37 11 -4 0 -5 6 -2 14 5 11 1 14 -12 9 -11 -3 -8 1 6 9
19 12 28 13 40 4 12 -9 0 8 -29 43 -2 3 -2 -2 2 -11 4 -13 0 -16 -21 -14 -15
1 -28 5 -29 8 -7 18 -1 25 20 21 22 -4 22 -4 -1 6 -13 5 -29 7 -34 3 -6 -3 -8
-1 -4 5 3 6 2 13 -4 17 -5 3 -10 0 -10 -7 0 -10 -3 -9 -9 2 -6 8 -7 18 -5 22
3 5 -2 11 -11 14 -14 6 -14 8 2 19 11 9 25 10 40 4 16 -6 23 -5 24 4z"/>
<path d="M616 1411 c-4 -5 -2 -12 4 -16 6 -4 7 -11 4 -17 -4 -5 4 -5 16 2 21
11 22 10 16 -6 -4 -10 -4 -15 0 -12 4 4 15 3 24 -2 14 -8 22 -4 35 16 9 15 12
23 6 20 -6 -4 -11 -2 -11 3 0 6 -5 11 -12 11 -9 0 -9 -3 -1 -11 15 -15 5 -39
-13 -32 -8 3 -14 9 -14 15 0 5 4 6 10 3 6 -3 7 1 3 10 -4 12 -8 13 -13 5 -6
-9 -9 -9 -13 1 -4 10 -6 10 -6 2 -1 -7 -6 -13 -12 -13 -5 0 -8 4 -4 9 3 5 1
12 -4 15 -5 4 -12 2 -15 -3z"/>
<path d="M882 1404 c10 -10 20 -16 22 -13 3 3 -5 11 -17 18 -21 13 -21 12 -5
-5z"/>
<path d="M840 1395 c-7 -8 -17 -12 -23 -8 -6 4 -7 1 -3 -6 6 -9 13 -8 27 5 10
9 19 19 19 21 0 7 -8 2 -20 -12z"/>
<path d="M1194 1388 l-19 -23 23 19 c21 18 27 26 19 26 -2 0 -12 -10 -23 -22z"/>
<path d="M1348 1403 c7 -3 16 -2 19 1 4 3 -2 6 -13 5 -11 0 -14 -3 -6 -6z"/>
<path d="M1430 1401 c0 -6 4 -13 10 -16 6 -3 7 1 4 9 -7 18 -14 21 -14 7z"/>
<path d="M1496 1393 c-4 -11 -1 -11 14 -3 24 13 25 17 5 17 -8 0 -16 -6 -19
-14z"/>
<path d="M936 1387 c3 -10 9 -15 12 -12 3 3 0 11 -7 18 -10 9 -11 8 -5 -6z"/>
<path d="M1293 1385 c0 -8 4 -12 9 -9 5 3 6 10 3 15 -9 13 -12 11 -12 -6z"/>
<path d="M736 1373 c-6 -14 -5 -15 5 -6 7 7 10 15 7 18 -3 3 -9 -2 -12 -12z"/>
<path d="M1370 1359 c0 -5 5 -7 10 -4 6 3 10 8 10 11 0 2 -4 4 -10 4 -5 0 -10
-5 -10 -11z"/>
<path d="M1478 1363 c7 -3 16 -2 19 1 4 3 -2 6 -13 5 -11 0 -14 -3 -6 -6z"/>
<path d="M1430 1345 c0 -7 30 -13 34 -7 3 4 -4 9 -15 9 -10 1 -19 0 -19 -2z"/>
<path d="M1492 1318 c-1 -26 1 -30 9 -15 6 10 6 23 1 33 -7 12 -9 8 -10 -18z"/>
<path d="M1459 1293 c-13 -16 -12 -17 4 -4 9 7 17 15 17 17 0 8 -8 3 -21 -13z"/>
<path d="M1419 1253 c-13 -16 -12 -17 4 -4 16 13 21 21 13 21 -2 0 -10 -8 -17
-17z"/>
<path d="M1335 1229 c-4 -6 -5 -12 -2 -15 2 -3 7 2 10 11 7 17 1 20 -8 4z"/>
<path d="M1366 1185 c-11 -8 -15 -15 -9 -15 6 0 16 7 23 15 16 19 11 19 -14 0z"/>
<path d="M855 1160 c-3 -5 -1 -10 4 -10 6 0 11 5 11 10 0 6 -2 10 -4 10 -3 0
-8 -4 -11 -10z"/>
<path d="M1270 1039 c0 -5 5 -7 10 -4 6 3 10 8 10 11 0 2 -4 4 -10 4 -5 0 -10
-5 -10 -11z"/>
<path d="M955 970 c3 -5 8 -10 11 -10 2 0 4 5 4 10 0 6 -5 10 -11 10 -5 0 -7
-4 -4 -10z"/>
<path d="M1161 944 c0 -11 3 -14 6 -6 3 7 2 16 -1 19 -3 4 -6 -2 -5 -13z"/>
<path d="M1090 905 c-7 -9 -8 -15 -2 -15 5 0 12 7 16 15 3 8 4 15 2 15 -2 0
-9 -7 -16 -15z"/>
<path d="M715 1641 c-3 -5 -2 -12 3 -15 5 -3 9 1 9 9 0 17 -3 19 -12 6z"/>
<path d="M1192 1641 c-11 -7 -11 -9 0 -14 9 -3 15 1 15 9 0 8 -1 14 -1 14 -1
0 -7 -4 -14 -9z"/>
<path d="M1915 1600 c-3 -5 -1 -10 4 -10 6 0 11 5 11 10 0 6 -2 10 -4 10 -3 0
-8 -4 -11 -10z"/>
<path d="M270 1440 c0 -5 5 -10 11 -10 5 0 7 5 4 10 -3 6 -8 10 -11 10 -2 0
-4 -4 -4 -10z"/>
<path d="M1886 1418 c3 -5 10 -6 15 -3 13 9 11 12 -6 12 -8 0 -12 -4 -9 -9z"/>
<path d="M1791 1313 c-1 -17 16 -25 25 -12 4 7 3 9 -4 5 -5 -3 -13 0 -15 6 -4
9 -6 10 -6 1z"/>
<path d="M366 1298 c3 -5 10 -6 15 -3 13 9 11 12 -6 12 -8 0 -12 -4 -9 -9z"/>
<path d="M1760 1260 c-9 -6 -10 -10 -3 -10 6 0 15 5 18 10 8 12 4 12 -15 0z"/>
<path d="M1754 1220 c0 -13 4 -16 10 -10 7 7 7 13 0 20 -6 6 -10 3 -10 -10z"/>
<path d="M635 981 c3 -3 17 -6 31 -7 13 0 22 2 19 5 -3 3 -17 6 -31 7 -13 0
-22 -2 -19 -5z"/>
<path d="M1535 971 c-3 -5 -2 -12 3 -15 5 -3 9 1 9 9 0 17 -3 19 -12 6z"/>
<path d="M739 878 c-5 -18 -6 -38 -1 -34 7 8 12 36 6 36 -2 0 -4 -1 -5 -2z"/>
<path d="M1470 866 c0 -2 7 -7 16 -10 8 -3 12 -2 9 4 -6 10 -25 14 -25 6z"/>
<path d="M1410 839 c0 -5 5 -7 10 -4 6 3 10 8 10 11 0 2 -4 4 -10 4 -5 0 -10
-5 -10 -11z"/>
<path d="M776 802 c-3 -5 1 -9 9 -9 8 0 12 4 9 9 -3 4 -7 8 -9 8 -2 0 -6 -4
-9 -8z"/>
<path d="M1334 742 c4 -3 14 -7 22 -8 9 -1 13 0 10 4 -4 3 -14 7 -22 8 -9 1
-13 0 -10 -4z"/>
<path d="M1173 555 c0 -8 4 -12 9 -9 5 3 6 10 3 15 -9 13 -12 11 -12 -6z"/>
</g>
</svg>
